<svg xmlns="http://www.w3.org/2000/svg" width="25.075" height="24.5" viewBox="0 0 25.075 24.5"><defs><style>.a{fill:none;stroke:#00cbb4;stroke-linecap:round;stroke-miterlimit:10;stroke-width:1.5px;}</style></defs><g transform="translate(0.75 0.75)"><path class="a" d="M52.586,1.5A8.286,8.286,0,0,0,44.3,9.786v7.019" transform="translate(-40.732 -1.5)"/><path class="a" d="M145.676,22.741a8.278,8.278,0,0,0,6.211-8.028V9.786A8.286,8.286,0,0,0,143.6,1.5" transform="translate(-131.754 -1.5)"/><path class="a" d="M46.7,54.726c.884.192,5.677,1,8.086-3.126a10.216,10.216,0,0,0,8.145,7.578" transform="translate(-42.932 -47.424)"/><path class="a" d="M5.085,88.328A4.451,4.451,0,0,1,5.068,79.6" transform="translate(-1.5 -73.089)"/><path class="a" d="M241.3,88.695A4.447,4.447,0,0,0,241.442,80" transform="translate(-221.309 -73.456)"/><circle class="a" cx="1.826" cy="1.826" r="1.826" transform="translate(10.062 19.349)"/></g></svg>