<svg xmlns="http://www.w3.org/2000/svg" width="24.384" height="20.744" viewBox="0 0 24.384 20.744"><defs><style>.a{fill:#00cbb4;}</style></defs><path class="a" d="M1860.991,201.826h9.859a2.193,2.193,0,0,1,2.326,2.314q0,4.394,0,8.788a2.191,2.191,0,0,1-2.322,2.343q-9.908.005-19.816,0a2.179,2.179,0,0,1-2.239-2.229q-.012-4.492,0-8.983a2.184,2.184,0,0,1,2.308-2.233Zm-.03,11.909h.511q4.7,0,9.394,0a.679.679,0,0,0,.714-.395,1.268,1.268,0,0,0,.069-.475q.006-4.32,0-8.64c0-.652-.225-.876-.879-.876q-2.349,0-4.7,0-7.484,0-14.967,0a.685.685,0,0,0-.783.773c0,1.16,0,2.32,0,3.48q0,2.689,0,5.378a.673.673,0,0,0,.754.748l.365,0Z" transform="translate(-1848.794 -201.826)"/><path class="a" d="M1861.087,349.893q-4.966,0-9.932,0a2.184,2.184,0,0,1-2.182-1.728,1.964,1.964,0,0,1-.04-.555.729.729,0,0,1,.752-.678.756.756,0,0,1,.755.684c.054.54.275.742.818.742h19.718c.5,0,.757-.22.8-.687a.762.762,0,1,1,1.522.078,2.161,2.161,0,0,1-1.841,2.1,10.734,10.734,0,0,1-1.36.041q-4.5,0-9.007,0Z" transform="translate(-1848.915 -332.8)"/><path class="a" d="M1861.028,387.338q-4.93,0-9.86,0a2.2,2.2,0,0,1-2.3-2.095.764.764,0,1,1,1.521-.11.679.679,0,0,0,.744.669q4.881,0,9.762,0,4.978,0,9.957,0c.6,0,.8-.171.871-.766a.759.759,0,0,1,.8-.662.744.744,0,0,1,.718.744,2.145,2.145,0,0,1-1.866,2.175c-.79.066-1.589.042-2.383.043Q1865.009,387.343,1861.028,387.338Z" transform="translate(-1848.858 -366.596)"/><path class="a" d="M1938.814,231.764a3.8,3.8,0,1,1-3.785,3.853A3.8,3.8,0,0,1,1938.814,231.764Zm2.273,3.813a2.262,2.262,0,1,0-2.278,2.26A2.27,2.27,0,0,0,1941.087,235.577Z" transform="translate(-1926.632 -228.849)"/><path class="a" d="M1896.627,263.844a.767.767,0,1,1-1.533.013.767.767,0,0,1,1.533-.013Z" transform="translate(-1890.584 -257.125)"/><path class="a" d="M2038.691,263.878a.767.767,0,0,1-1.534-.009.767.767,0,0,1,1.534.009Z" transform="translate(-2018.813 -257.146)"/></svg>