<svg xmlns="http://www.w3.org/2000/svg" width="22.971" height="23.311" viewBox="0 0 22.971 23.311"><defs><style>.a,.b{fill:none;stroke:#00cbb4;stroke-miterlimit:10;stroke-width:1.5px;}.a{stroke-linejoin:round;}.b{stroke-linecap:round;}</style></defs><g transform="translate(0.75 0.75)"><path class="a" d="M-2975.838-2774a10.687,10.687,0,0,1-5.427,1.471A10.736,10.736,0,0,1-2992-2783.264,10.735,10.735,0,0,1-2981.264-2794a10.736,10.736,0,0,1,10.736,10.735,10.687,10.687,0,0,1-1.609,5.656l1.3,5.42Z" transform="translate(2992 2794)"/><g transform="translate(-209.4 -377)"><path class="b" d="M8.7,8.356A2.9,2.9,0,0,1,11.8,6.8a2.961,2.961,0,0,1,2.328,2.328,2.8,2.8,0,0,1-2,3.215,1.065,1.065,0,0,0-.776,1v1" transform="translate(209.2 376.2)"/><line class="b" y2="0.099" transform="translate(220.45 392.994)"/></g></g></svg>