<svg xmlns="http://www.w3.org/2000/svg" width="29" height="18.986" viewBox="0 0 29 18.986"><defs><style>.a,.b,.c{fill:none;}.a,.b{stroke:#00cbb4;stroke-width:1.5px;}.a,.c{stroke-linecap:round;}.b{stroke-linecap:square;}.c{stroke-linejoin:round;}.d,.e{stroke:none;}.e{fill:#00cbb4;}</style></defs><g transform="translate(-122 -390)"><line class="a" x2="20.382" transform="translate(126.118 408.236)"/><g transform="translate(129.82 397.605)"><g transform="translate(0)"><line class="b" y2="10.059"/><line class="b" y2="10.059" transform="translate(4.567)"/><line class="b" y2="10.059" transform="translate(9.134)"/><line class="b" y2="10.059" transform="translate(13.701)"/></g></g><g class="c" transform="translate(122 390)"><path class="d" d="M14.017.267a1,1,0,0,1,.966,0L25.6,6.124A1,1,0,0,1,25.117,8H3.883A1,1,0,0,1,3.4,6.124Z"/><path class="e" d="M 14.50000953674316 1.713152408599854 L 5.823843002319336 6.500004291534424 L 23.17615127563477 6.500004291534424 L 14.50000953674316 1.713152408599854 M 14.5 0.1420993804931641 C 14.66636753082275 0.1420993804931641 14.83273506164551 0.1835741996765137 14.98307991027832 0.2665243148803711 L 25.60050964355469 6.124424457550049 C 26.5053596496582 6.623654365539551 26.15086936950684 8.000004768371582 25.11742973327637 8.000004768371582 L 3.882560729980469 8.000004768371582 C 2.849130630493164 8.000004768371582 2.494630813598633 6.623654365539551 3.399480819702148 6.124424457550049 L 14.01692008972168 0.2665243148803711 C 14.16726493835449 0.1835741996765137 14.33363246917725 0.1420993804931641 14.5 0.1420993804931641 Z"/></g></g></svg>