<svg xmlns="http://www.w3.org/2000/svg" width="24.282" height="24.282" viewBox="0 0 24.282 24.282"><defs><style>.a{fill:#00cbb4;}</style></defs><path class="a" d="M656.7,201.848l-2.85,2.849L652.813,204c-.518-.346-1.033-.7-1.558-1.032a.389.389,0,0,0-.306-.018c-.445.173-.878.379-1.326.545a.387.387,0,0,0-.289.333c-.175.932-.363,1.862-.547,2.793-.016.079-.036.158-.056.245h-4.009l-.428-2.149c-.071-.354-.042-.788-.241-1.04s-.621-.3-.946-.445a.838.838,0,0,1-.2-.091c-.411-.331-.75-.2-1.138.091-.7.515-1.434.975-2.129,1.441l-2.861-2.861.656-.98c.351-.526.708-1.048,1.047-1.581a.389.389,0,0,0,.016-.3c-.173-.445-.379-.879-.544-1.327a.386.386,0,0,0-.331-.289c-.932-.175-1.862-.363-2.793-.547-.079-.016-.158-.036-.245-.056v-4.01l2.176-.432c.31-.061.624-.11.929-.19a.41.41,0,0,0,.234-.208q.311-.69.584-1.4a.386.386,0,0,0-.036-.3c-.565-.861-1.141-1.714-1.7-2.543l2.865-2.866,1.68,1.119c.293.2.579.4.88.584a.394.394,0,0,0,.3.017c.445-.173.879-.378,1.327-.544a.386.386,0,0,0,.29-.331c.175-.932.363-1.862.547-2.793.016-.079.036-.158.056-.245h4.01q.216,1.09.432,2.176c.06.3.124.6.174.9a.324.324,0,0,0,.246.275c.455.174.906.36,1.348.563a.3.3,0,0,0,.338-.024c.852-.578,1.708-1.149,2.539-1.706l2.865,2.865c-.353.53-.736,1.106-1.121,1.682-.2.293-.4.579-.584.88a.4.4,0,0,0-.02.305c.173.445.379.878.545,1.326a.387.387,0,0,0,.333.289c.932.175,1.862.363,2.793.547.079.016.158.036.245.056v4.01l-2.176.431c-.31.061-.624.11-.929.19a.41.41,0,0,0-.233.208q-.31.691-.583,1.4a.386.386,0,0,0,.032.3C655.545,200.131,656.12,200.985,656.7,201.848Zm-16.912,1.024c.781-.525,1.554-1.041,2.32-1.567a.3.3,0,0,1,.381-.014,7.244,7.244,0,0,0,2.378,1.019.572.572,0,0,1,.521.553c.143.862.331,1.717.5,2.582h1.674c.016-.07.032-.13.044-.19.173-.868.349-1.736.514-2.606.029-.151.079-.238.24-.273a7.994,7.994,0,0,0,2.636-1.1.257.257,0,0,1,.334.016c.709.484,1.423.96,2.136,1.437.073.049.149.092.18.111l1.2-1.2c-.5-.739-1.006-1.507-1.528-2.265a.333.333,0,0,1-.018-.428,6.924,6.924,0,0,0,1.007-2.353.571.571,0,0,1,.554-.521c.862-.143,1.717-.331,2.583-.5V193.9c-.07-.016-.129-.033-.19-.044-.868-.173-1.736-.35-2.606-.513a.3.3,0,0,1-.28-.266,7.869,7.869,0,0,0-1.091-2.61.256.256,0,0,1,.012-.334c.484-.709.959-1.423,1.437-2.136.049-.073.093-.148.112-.179l-1.2-1.2c-.742.5-1.51,1.006-2.269,1.527a.334.334,0,0,1-.429.017,6.926,6.926,0,0,0-2.353-1.007.571.571,0,0,1-.521-.553c-.143-.862-.331-1.717-.5-2.583H645.9c-.016.07-.033.129-.044.19-.175.877-.353,1.754-.519,2.633a.266.266,0,0,1-.233.247,8.033,8.033,0,0,0-2.636,1.1.259.259,0,0,1-.335-.015c-.717-.488-1.438-.97-2.158-1.452-.065-.044-.135-.081-.161-.1l-1.2,1.2c.5.748,1.017,1.523,1.542,2.29a.3.3,0,0,1,.013.382,6.227,6.227,0,0,0-.948,2.144.878.878,0,0,1-.89.811c-.776.1-1.54.292-2.316.446v1.673c.07.016.13.032.19.044.868.173,1.736.349,2.606.514.151.029.239.078.273.239a7.932,7.932,0,0,0,1.1,2.636.258.258,0,0,1-.017.334c-.483.709-.96,1.423-1.437,2.136-.049.073-.092.149-.133.216Z" transform="translate(-634.588 -182.588)"/><path class="a" d="M700.586,253.552a4.985,4.985,0,1,1,4.973,5A4.989,4.989,0,0,1,700.586,253.552Zm1.432,0a3.558,3.558,0,0,0,3.532,3.577,3.6,3.6,0,0,0,3.584-3.569,3.563,3.563,0,0,0-3.562-3.547A3.517,3.517,0,0,0,702.018,253.557Z" transform="translate(-693.426 -241.426)"/></svg>